<?xml version="1.0" encoding="utf-8"?>
<!-- Generator: Adobe Illustrator 19.1.1, SVG Export Plug-In . SVG Version: 6.00 Build 0)  -->
<svg version="1.1" id="Layer_1" xmlns="http://www.w3.org/2000/svg" xmlns:xlink="http://www.w3.org/1999/xlink" x="0px" y="0px"
	 viewBox="0 0 228.5 45.1" style="enable-background:new 0 0 228.5 45.1;" xml:space="preserve">
<style type="text/css">
	.st0{fill:#99CCCC;}
	.st1{fill:#333333;}
	.st2{fill:#FFCC33;}
	.st3{fill:none;}
	.st4{fill:#FFFFFF;}
</style>
<g>
	<g>
		<path class="st0" d="M70,25.4h4.9c1.7,0,3,0.5,3.7,1.4c0.8,0.9,1.2,2.3,1.2,4.1c0,1.6-0.4,2.9-1.2,3.8c-0.8,0.9-2,1.3-3.6,1.3
			h-2.2v9.2H70V25.4z M74,34c0.8,0,1.4-0.1,1.9-0.3c0.4-0.2,0.8-0.5,1-0.9c0.2-0.4,0.3-1.1,0.3-1.9c0-1-0.1-1.8-0.2-2.2
			c-0.1-0.5-0.4-0.8-0.9-1c-0.4-0.2-1.1-0.3-2-0.3h-1.3V34H74z"/>
		<path class="st1" d="M84,25.4h2.7l4.2,19.8h-2.6l-0.9-5h-4l-1,5h-2.6L84,25.4z M87,38.2l-1.7-8.9l-1.6,8.9H87z"/>
		<path class="st1" d="M94.1,27.4h-3.6v-2.1h9.9v2.1h-3.5v17.8h-2.8V27.4z"/>
		<path class="st1" d="M103.9,27.4h-3.6v-2.1h9.9v2.1h-3.5v17.8h-2.8V27.4z"/>
		<path class="st1" d="M111.7,25.4h7.7v2.1h-4.9V34h4v2h-4v7.3h5v2h-7.7V25.4z"/>
		<path class="st1" d="M121.7,25.4h4c2,0,3.5,0.4,4.4,1.2c0.9,0.8,1.4,2.2,1.4,4c0,2.5-0.8,4.1-2.4,4.6l2.8,9.9h-2.7l-2.6-9.3h-2.2
			v9.3h-2.8V25.4z M125.5,33.9c1.2,0,2-0.2,2.6-0.7c0.5-0.5,0.8-1.3,0.8-2.6c0-0.8-0.1-1.5-0.3-1.9c-0.2-0.5-0.5-0.8-1-1
			c-0.5-0.2-1.1-0.3-1.9-0.3h-1.2v6.6H125.5z"/>
		<path class="st1" d="M134.4,25.4h1.9l5.6,13.2V25.4h2.3v19.8h-1.8l-5.7-13.5v13.5h-2.3V25.4z"/>
		<path class="st2" d="M152.9,25.4h7.7v2h-4.9V34h3.8v2h-3.8v9.3h-2.8V25.4z"/>
		<path class="st1" d="M165.2,25.4h2.7l4.2,19.8h-2.6l-0.9-5h-4l-1,5H161L165.2,25.4z M168.2,38.2l-1.7-8.9l-1.6,8.9H168.2z"/>
		<path class="st1" d="M175,43.9c-0.9-1-1.4-2.4-1.5-4.2L176,39c0.1,1.3,0.3,2.3,0.7,3.1c0.4,0.8,1.1,1.2,2.1,1.2
			c0.7,0,1.3-0.2,1.6-0.6c0.4-0.4,0.6-1,0.6-1.7c0-0.8-0.2-1.5-0.5-2c-0.3-0.5-0.9-1.1-1.6-1.8l-3.3-2.9c-0.7-0.6-1.2-1.2-1.5-1.9
			c-0.3-0.7-0.5-1.5-0.5-2.5c0-1.5,0.4-2.6,1.3-3.4c0.8-0.8,2-1.2,3.5-1.2c1.6,0,2.7,0.4,3.5,1.2c0.8,0.8,1.2,2.1,1.4,3.9l-2.4,0.6
			c-0.1-1.1-0.3-2-0.6-2.7c-0.3-0.6-0.9-1-1.8-1c-1.6,0-2.4,0.7-2.4,2.2c0,0.6,0.1,1.1,0.3,1.5c0.2,0.4,0.5,0.8,1,1.2l3.4,2.9
			c0.9,0.8,1.6,1.6,2.1,2.5c0.5,0.9,0.8,1.9,0.8,3c0,1.5-0.4,2.6-1.3,3.5c-0.9,0.8-2,1.3-3.4,1.3C177.1,45.4,175.8,44.9,175,43.9z"
			/>
		<path class="st1" d="M185.7,25.4h2.8v8.6h5.1v-8.6h2.8v19.8h-2.8v-9.3h-5.1v9.3h-2.8V25.4z"/>
		<path class="st1" d="M199.6,25.4h2.7v19.8h-2.7V25.4z"/>
		<path class="st1" d="M206.4,43.8c-0.8-1.1-1.3-2.7-1.3-4.8v-7.5c0-2.1,0.4-3.6,1.3-4.7c0.8-1.1,2.2-1.6,4.2-1.6
			c1.9,0,3.3,0.5,4.1,1.6c0.8,1.1,1.3,2.6,1.3,4.7V39c0,2.1-0.4,3.6-1.3,4.7c-0.8,1.1-2.2,1.7-4.1,1.7
			C208.6,45.4,207.2,44.9,206.4,43.8z M212.6,42.3c0.4-0.6,0.5-1.5,0.5-2.7v-8.7c0-1.2-0.2-2.1-0.5-2.7c-0.4-0.6-1.1-0.9-2.1-0.9
			c-1,0-1.7,0.3-2.1,0.9c-0.4,0.6-0.5,1.5-0.5,2.7v8.7c0,1.2,0.2,2.1,0.5,2.7c0.4,0.6,1.1,0.9,2.1,0.9
			C211.6,43.2,212.3,42.9,212.6,42.3z"/>
		<path class="st1" d="M218.7,25.4h1.9l5.6,13.2V25.4h2.3v19.8h-1.8L221,31.6v13.5h-2.3V25.4z"/>
	</g>
	<g>
		<path class="st1" d="M25.9,10.8c0,1.5-0.3,2.9-0.8,4.3c-0.5,1.3-1.3,2.5-2.3,3.5c-1,1-2.3,1.8-3.9,2.4c-1.5,0.6-3.3,0.9-5.4,0.9H4
			v14.6H0.3V0h13c2.1,0,3.9,0.3,5.5,0.8c1.6,0.5,2.9,1.2,4,2.2c1.1,0.9,1.9,2.1,2.4,3.4C25.7,7.7,25.9,9.2,25.9,10.8z M22.1,10.8
			c0-2.5-0.8-4.4-2.3-5.8C18.3,3.7,15.9,3,12.9,3H4v16h9c1.6,0,2.9-0.2,4-0.6c1.1-0.4,2.1-1,2.8-1.7c0.7-0.7,1.3-1.6,1.7-2.6
			C22,13.1,22.1,12,22.1,10.8z"/>
		<path class="st1" d="M38.1,42V27.2H19.9V24h18.2V8.6h3.7v36.5H19.2V42H38.1z"/>
		<circle class="st0" cx="2.3" cy="42.9" r="2.3"/>
		<circle class="st2" cx="39.7" cy="2.3" r="2.3"/>
	</g>
</g>
</svg>
